<mxfile host="app.diagrams.net" modified="2024-07-09T17:20:57.745Z" agent="Mozilla/5.0 (Windows NT 10.0; Win64; x64) AppleWebKit/537.36 (KHTML, like Gecko) Chrome/123.0.0.0 Safari/537.36 OPR/109.0.0.0" etag="8y49TUHgtSbwxREkMjWm" version="24.6.4" type="google">
  <diagram name="PÃ¡gina-1" id="9vWltgJF2np-rNUBS7Cf">
    <mxGraphModel dx="2209" dy="1023" grid="0" gridSize="10" guides="1" tooltips="1" connect="1" arrows="1" fold="1" page="0" pageScale="1" pageWidth="827" pageHeight="1169" background="none" math="0" shadow="0">
      <root>
        <object label="" Valor="Float" id="0">
          <mxCell />
        </object>
        <mxCell id="1" parent="0" />
        <mxCell id="-u2ntJt3koso3KTR8nmP-14" style="edgeStyle=none;curved=1;rounded=0;orthogonalLoop=1;jettySize=auto;html=1;exitX=0;exitY=0.5;exitDx=0;exitDy=0;entryX=0.5;entryY=0;entryDx=0;entryDy=0;fontSize=12;startSize=8;endSize=8;" edge="1" parent="1" source="-u2ntJt3koso3KTR8nmP-1" target="-u2ntJt3koso3KTR8nmP-2">
          <mxGeometry relative="1" as="geometry">
            <Array as="points">
              <mxPoint x="-672" y="12" />
              <mxPoint x="-745" y="52" />
              <mxPoint x="-758" y="117" />
            </Array>
          </mxGeometry>
        </mxCell>
        <mxCell id="-u2ntJt3koso3KTR8nmP-15" value="" style="edgeStyle=orthogonalEdgeStyle;curved=1;rounded=0;orthogonalLoop=1;jettySize=auto;html=1;fontSize=12;startSize=8;endSize=8;entryX=0.5;entryY=0;entryDx=0;entryDy=0;" edge="1" parent="1" source="-u2ntJt3koso3KTR8nmP-1" target="-u2ntJt3koso3KTR8nmP-6">
          <mxGeometry relative="1" as="geometry" />
        </mxCell>
        <mxCell id="-u2ntJt3koso3KTR8nmP-16" style="edgeStyle=orthogonalEdgeStyle;curved=1;rounded=0;orthogonalLoop=1;jettySize=auto;html=1;entryX=0.5;entryY=0;entryDx=0;entryDy=0;fontSize=12;startSize=8;endSize=8;exitX=1;exitY=0.5;exitDx=0;exitDy=0;" edge="1" parent="1" source="-u2ntJt3koso3KTR8nmP-1" target="-u2ntJt3koso3KTR8nmP-10">
          <mxGeometry relative="1" as="geometry">
            <Array as="points">
              <mxPoint x="-421" y="12" />
              <mxPoint x="-222" y="12" />
              <mxPoint x="-222" y="137" />
            </Array>
          </mxGeometry>
        </mxCell>
        <mxCell id="-u2ntJt3koso3KTR8nmP-1" value="Iphone" style="html=1;whiteSpace=wrap;" vertex="1" parent="1">
          <mxGeometry x="-574" y="-15" width="155" height="50" as="geometry" />
        </mxCell>
        <mxCell id="-u2ntJt3koso3KTR8nmP-2" value="ReprodutorMusical" style="swimlane;fontStyle=1;align=center;verticalAlign=top;childLayout=stackLayout;horizontal=1;startSize=26;horizontalStack=0;resizeParent=1;resizeParentMax=0;resizeLast=0;collapsible=1;marginBottom=0;whiteSpace=wrap;html=1;" vertex="1" parent="1">
          <mxGeometry x="-861" y="126" width="160" height="89" as="geometry" />
        </mxCell>
        <mxCell id="-u2ntJt3koso3KTR8nmP-4" value="" style="line;strokeWidth=1;fillColor=none;align=left;verticalAlign=middle;spacingTop=-1;spacingLeft=3;spacingRight=3;rotatable=0;labelPosition=right;points=[];portConstraint=eastwest;strokeColor=inherit;" vertex="1" parent="-u2ntJt3koso3KTR8nmP-2">
          <mxGeometry y="26" width="160" height="8" as="geometry" />
        </mxCell>
        <mxCell id="-u2ntJt3koso3KTR8nmP-5" value="+tocar (): void&lt;div&gt;+pausar() : void&lt;/div&gt;&lt;div&gt;+selecionarMusica(): void&lt;/div&gt;&lt;div&gt;&lt;br&gt;&lt;/div&gt;" style="text;strokeColor=none;fillColor=none;align=left;verticalAlign=top;spacingLeft=4;spacingRight=4;overflow=hidden;rotatable=0;points=[[0,0.5],[1,0.5]];portConstraint=eastwest;whiteSpace=wrap;html=1;" vertex="1" parent="-u2ntJt3koso3KTR8nmP-2">
          <mxGeometry y="34" width="160" height="55" as="geometry" />
        </mxCell>
        <mxCell id="-u2ntJt3koso3KTR8nmP-6" value="AparelhoTelefonico" style="swimlane;fontStyle=1;align=center;verticalAlign=top;childLayout=stackLayout;horizontal=1;startSize=26;horizontalStack=0;resizeParent=1;resizeParentMax=0;resizeLast=0;collapsible=1;marginBottom=0;whiteSpace=wrap;html=1;" vertex="1" parent="1">
          <mxGeometry x="-579" y="229" width="160" height="90" as="geometry" />
        </mxCell>
        <mxCell id="-u2ntJt3koso3KTR8nmP-8" value="" style="line;strokeWidth=1;fillColor=none;align=left;verticalAlign=middle;spacingTop=-1;spacingLeft=3;spacingRight=3;rotatable=0;labelPosition=right;points=[];portConstraint=eastwest;strokeColor=inherit;" vertex="1" parent="-u2ntJt3koso3KTR8nmP-6">
          <mxGeometry y="26" width="160" height="8" as="geometry" />
        </mxCell>
        <mxCell id="-u2ntJt3koso3KTR8nmP-9" value="+ligar() : void&lt;div&gt;+Atender() : void&lt;br&gt;&lt;/div&gt;&lt;div&gt;+iniciarCorreioVoz() : void&lt;br&gt;&lt;/div&gt;" style="text;strokeColor=none;fillColor=none;align=left;verticalAlign=top;spacingLeft=4;spacingRight=4;overflow=hidden;rotatable=0;points=[[0,0.5],[1,0.5]];portConstraint=eastwest;whiteSpace=wrap;html=1;" vertex="1" parent="-u2ntJt3koso3KTR8nmP-6">
          <mxGeometry y="34" width="160" height="56" as="geometry" />
        </mxCell>
        <mxCell id="-u2ntJt3koso3KTR8nmP-10" value="NavegadorInternet" style="swimlane;fontStyle=1;align=center;verticalAlign=top;childLayout=stackLayout;horizontal=1;startSize=26;horizontalStack=0;resizeParent=1;resizeParentMax=0;resizeLast=0;collapsible=1;marginBottom=0;whiteSpace=wrap;html=1;" vertex="1" parent="1">
          <mxGeometry x="-344" y="137" width="261" height="96" as="geometry" />
        </mxCell>
        <mxCell id="-u2ntJt3koso3KTR8nmP-12" value="" style="line;strokeWidth=1;fillColor=none;align=left;verticalAlign=middle;spacingTop=-1;spacingLeft=3;spacingRight=3;rotatable=0;labelPosition=right;points=[];portConstraint=eastwest;strokeColor=inherit;" vertex="1" parent="-u2ntJt3koso3KTR8nmP-10">
          <mxGeometry y="26" width="261" height="8" as="geometry" />
        </mxCell>
        <mxCell id="-u2ntJt3koso3KTR8nmP-13" value="&lt;code style=&quot;box-sizing: border-box; font-family: var(--fontStack-monospace, ui-monospace, SFMono-Regular, SF Mono, Menlo, Consolas, Liberation Mono, monospace); font-size: 13.6px; padding: 0.2em 0.4em; margin: 0px; white-space-collapse: break-spaces; background-color: var(--bgColor-neutral-muted, var(--color-neutral-muted)); border-radius: 6px;&quot;&gt;+exibirPagina(): void&lt;/code&gt;&lt;div&gt;&lt;code style=&quot;box-sizing: border-box; font-family: var(--fontStack-monospace, ui-monospace, SFMono-Regular, SF Mono, Menlo, Consolas, Liberation Mono, monospace); font-size: 13.6px; padding: 0.2em 0.4em; margin: 0px; white-space-collapse: break-spaces; background-color: var(--bgColor-neutral-muted, var(--color-neutral-muted)); border-radius: 6px;&quot;&gt;+adicionarNovaAba():void&lt;/code&gt;&lt;/div&gt;&lt;div&gt;&lt;code style=&quot;box-sizing: border-box; font-family: var(--fontStack-monospace, ui-monospace, SFMono-Regular, SF Mono, Menlo, Consolas, Liberation Mono, monospace); font-size: 13.6px; padding: 0.2em 0.4em; margin: 0px; white-space-collapse: break-spaces; background-color: var(--bgColor-neutral-muted, var(--color-neutral-muted)); border-radius: 6px;&quot;&gt;+atualizarPagina():void&lt;/code&gt;&lt;/div&gt;&lt;div&gt;&lt;code style=&quot;box-sizing: border-box; font-family: var(--fontStack-monospace, ui-monospace, SFMono-Regular, SF Mono, Menlo, Consolas, Liberation Mono, monospace); font-size: 13.6px; padding: 0.2em 0.4em; margin: 0px; white-space-collapse: break-spaces; background-color: var(--bgColor-neutral-muted, var(--color-neutral-muted)); border-radius: 6px;&quot;&gt;&lt;br&gt;&lt;/code&gt;&lt;/div&gt;" style="text;strokeColor=none;fillColor=none;align=left;verticalAlign=top;spacingLeft=4;spacingRight=4;overflow=hidden;rotatable=0;points=[[0,0.5],[1,0.5]];portConstraint=eastwest;whiteSpace=wrap;html=1;" vertex="1" parent="-u2ntJt3koso3KTR8nmP-10">
          <mxGeometry y="34" width="261" height="62" as="geometry" />
        </mxCell>
      </root>
    </mxGraphModel>
  </diagram>
</mxfile>
